<svg xmlns="http://www.w3.org/2000/svg" width="48" height="48" fill="none" id="mi">
  <path fill="#FF6700" d="M0 24C0 10.745 10.745 0 24 0s24 10.745 24 24-10.745 24-24 24S0 37.255 0 24Z"></path>
  <path fill="#fff" fill-rule="evenodd" d="M24.684 16H11.47a.265.265 0 0 0-.269.261V31.91c0 .143.12.26.27.26h3.468c.149 0 .27-.117.27-.26v-12.28c0-.142.12-.26.268-.26h7.476c2.103 0 2.699 1.592 2.699 2.618v9.922c0 .143.12.26.269.26h3.466a.265.265 0 0 0 .27-.26v-11.1c0-.917-.113-2.233-1.307-3.39C27.101 16.208 25.96 16 24.684 16Zm11.847 0h-3.47a.265.265 0 0 0-.268.261V31.91c0 .143.12.26.269.26h3.469a.265.265 0 0 0 .269-.26V16.26a.267.267 0 0 0-.269-.261Zm-17.92 6.233h3.644c.149 0 .27.117.27.258v9.42a.267.267 0 0 1-.27.261h-3.644a.267.267 0 0 1-.27-.26v-9.418c0-.144.121-.261.27-.261Z" clip-rule="evenodd"></path>
</svg>
